<svg xmlns="http://www.w3.org/2000/svg" xmlns:xlink="http://www.w3.org/1999/xlink" width="500" zoomAndPan="magnify" viewBox="0 0 375 374.999991" height="500" preserveAspectRatio="xMidYMid meet" version="1.0"><defs><clipPath id="7f357c5764"><path d="M 187.5 0 C 83.945312 0 0 83.945312 0 187.5 C 0 291.054688 83.945312 375 187.5 375 C 291.054688 375 375 291.054688 375 187.5 C 375 83.945312 291.054688 0 187.5 0 " clip-rule="nonzero"/></clipPath></defs><g clip-path="url(#7f357c5764)"><rect x="-37.5" width="450" fill="#fad02c" y="-37.499999" height="449.999989" fill-opacity="1"/></g><path fill="#333652" d="M 339.71875 173.441406 L 201.621094 35.355469 C 193.679688 27.402344 180.777344 27.402344 172.820312 35.355469 L 144.140625 64.03125 L 180.519531 100.410156 C 188.96875 97.554688 198.667969 99.46875 205.402344 106.207031 C 212.171875 112.988281 214.078125 122.765625 211.148438 131.246094 L 246.210938 166.3125 C 254.6875 163.382812 264.472656 165.273438 271.257812 172.058594 C 280.722656 181.519531 280.722656 196.867188 271.257812 206.332031 C 261.78125 215.808594 246.449219 215.808594 236.972656 206.332031 C 229.84375 199.203125 228.085938 188.75 231.695312 179.976562 L 199.003906 147.277344 L 198.992188 233.3125 C 201.300781 234.464844 203.476562 235.984375 205.402344 237.898438 C 214.867188 247.363281 214.867188 262.707031 205.402344 272.183594 C 195.9375 281.648438 180.582031 281.648438 171.128906 272.183594 C 161.664062 262.707031 161.664062 247.363281 171.128906 237.898438 C 173.464844 235.5625 176.171875 233.796875 179.0625 232.609375 L 179.0625 145.773438 C 176.171875 144.59375 173.476562 142.835938 171.128906 140.484375 C 163.949219 133.320312 162.234375 122.792969 165.902344 113.984375 L 130.050781 78.121094 L 35.359375 172.808594 C 27.402344 180.765625 27.402344 193.667969 35.359375 201.621094 L 173.453125 339.71875 C 181.410156 347.664062 194.308594 347.664062 202.265625 339.71875 L 339.71875 202.265625 C 347.675781 194.308594 347.675781 181.398438 339.71875 173.441406 " fill-opacity="1" fill-rule="nonzero"/></svg>